/* XPM */
static char *_0285074153441bee60a5c957a4ef322JT721QCJr8HAANTL[] = {
/* columns rows colors chars-per-pixel */
"64 64 186 2 ",
"   c #7F6B33",
".  c #545454",
"X  c #5C5551",
"o  c #62554E",
"O  c #6B564E",
"+  c #6D594E",
"@  c #725C4E",
"#  c #7A5E4C",
"$  c #625951",
"%  c #7C6141",
"&  c #76624C",
"*  c #796C4B",
"=  c #7D7C4E",
"-  c #736150",
";  c #7A7253",
":  c #BE7502",
">  c #B77907",
",  c #BB7906",
"<  c #B8760A",
"1  c #B77808",
"2  c #BA7B08",
"3  c #9B6229",
"4  c #8D7724",
"5  c #9A7D2A",
"6  c #876C34",
"7  c #856D39",
"8  c #8E7131",
"9  c #927332",
"0  c #A5642D",
"q  c #AA6936",
"w  c #C17604",
"e  c #C77A0A",
"r  c #CC7D0F",
"t  c #CB7D10",
"y  c #886D43",
"u  c #806B4B",
"i  c #877B4A",
"p  c #897D49",
"a  c #71AF3E",
"s  c #62B63E",
"d  c #6FB23A",
"f  c #69BA3A",
"g  c #71BD39",
"h  c #78BF3E",
"j  c #599F56",
"k  c #5B9D59",
"l  c #788041",
"z  c #649F5D",
"x  c #739E53",
"c  c #5DAE46",
"v  c #5DAB48",
"b  c #5BA154",
"n  c #6BAE4F",
"m  c #7AA54E",
"M  c #66B740",
"N  c #69B447",
"B  c #6AB941",
"V  c #6CB349",
"C  c #74BB44",
"Z  c #7CBD45",
"A  c #74B54C",
"S  c #7AB64E",
"D  c #7EBA4B",
"F  c #66A655",
"G  c #68A653",
"H  c #65A953",
"J  c #6DAD51",
"K  c #77A357",
"L  c #72AD55",
"P  c #7DAE55",
"I  c #77B252",
"U  c #7CB452",
"Y  c #95980A",
"T  c #8D911E",
"R  c #B9800B",
"E  c #AE8E19",
"W  c #B48812",
"Q  c #AA941E",
"!  c #8DA600",
"~  c #8EAA02",
"^  c #93AD03",
"/  c #98AC02",
"(  c #90AF09",
")  c #9DB301",
"_  c #92B10D",
"`  c #8DAF14",
"'  c #8EB111",
"]  c #8CB21B",
"[  c #97BA17",
"{  c #B2A50F",
"}  c #B7A90C",
"|  c #B8AC0B",
" . c #A1B602",
".. c #A4B903",
"X. c #ADBE00",
"o. c #A3BB0C",
"O. c #B5BC04",
"+. c #B8B808",
"@. c #8F8F21",
"#. c #97872B",
"$. c #8E883C",
"%. c #A58B26",
"&. c #A29424",
"*. c #A69A24",
"=. c #A18F3B",
"-. c #A2913B",
";. c #AD9639",
":. c #B49D36",
">. c #BE9F31",
",. c #94A120",
"<. c #8CB423",
"1. c #8BB82C",
"2. c #92BE28",
"3. c #9CA831",
"4. c #8AB932",
"5. c #8BBD3C",
"6. c #92BE33",
"7. c #95B23B",
"8. c #9EB43F",
"9. c #92BB3D",
"0. c #A8AE3B",
"q. c #B7A334",
"w. c #B8A233",
"e. c #D38217",
"r. c #D8851E",
"t. c #DB8721",
"y. c #D48A24",
"u. c #DB8A22",
"i. c #CA992C",
"p. c #D59126",
"a. c #AFC002",
"s. c #ADC20C",
"d. c #B6C400",
"f. c #B8C701",
"g. c #B6C805",
"h. c #B8C903",
"j. c #B2C60A",
"k. c #B4C90C",
"l. c #ABC413",
"z. c #AFC913",
"x. c #A5C41D",
"c. c #A8C419",
"v. c #B1C910",
"b. c #9BC22B",
"n. c #9BC32D",
"m. c #8EC13C",
"M. c #95C234",
"N. c #98C432",
"B. c #92C23C",
"V. c #94CB3E",
"C. c #9DD43B",
"Z. c #A2C423",
"A. c #82844B",
"S. c #85884A",
"D. c #8E8D49",
"F. c #969547",
"G. c #949F47",
"H. c #8C9250",
"J. c #86AC4E",
"K. c #8FA948",
"L. c #97A047",
"P. c #94AD47",
"I. c #92AB48",
"U. c #82BE47",
"Y. c #8CBE43",
"T. c #8BB349",
"R. c #83BC4B",
"E. c #84BD4B",
"W. c #86BE4D",
"Q. c #89BE4B",
"!. c #9CB641",
"~. c #92BA45",
"^. c #98B943",
"/. c #91B248",
"(. c #81A851",
"). c #82B451",
"_. c #83C047",
"`. c #86C146",
"'. c #8FC342",
"]. c #8CC345",
"[. c #8EC545",
"{. c #86C149",
"}. c #8BC349",
"|. c #8BC34A",
" X c #90C340",
".X c #92CA43",
/* pixels */
"|.|.|.|.|.|.|.|.|.|.|.|.|.|.|.|.|.W.).U I U R.R.Z Z U.9.b.c.j.g.d.d.j.l.Z.M.'.].|.|.|.|.`.h h `.|.|.|.|.|.|.|.|.|.|.|.|.|.|.|.|.",
"|.|.|.|.|.|.|.|.|.|.|.|.|.|.|.|.|.|.Q.W.W.E.|.|.`.].M.x.j.h.f.d.d.d.d.h.j.c.n.'.|.|.|.|.`.g g _.|.|.|.|.|.|.|.|.|.|.|.|.|.|.|.|.",
"|.|.|.|.|.|.|.|.|.|.|.|.|.|.|.|.|.|.|.|.|.|.|.|.'.n.c.g.f.d.d.d.d.d.d.d.f.g.l.n.'.|.|.|._.f f Z |.|.|.|.|.|.|.|.|.|.|.|.|.|.|.|.",
"|.|.|.|.|.|.|.|.|.|.|.|.|.|.|.|.|.|.|.|.|.|.|.].M.c.g.d.d.d.d.d.d.d.d.d.d.d.d.l.N.].|.|.U.s s Z |.|.{.|.|.|.|.|.|.|.|.|.|.|.|.|.",
"|.|.|.|.|.|.|.|.|.|.|.|.|.|.|.|.|.|.|.|.|.|.|. XZ.g.d.d.d.d.d.d.d.d.d.d.d.d.d.g.x.B.|.|.D v v D {.Z Z _.|.|.|.|.|.|.|.|.|.|.|.|.",
"|.|.|.|.|.|.|.|.|.|.|.|.|.|.|.|.|.|.|.|.|.|.].N.z.h.d.d.d.d.d.d.d.d.d.d.d.d.d.h.v.n.].|.D b j S R.B M Z {.|.|.|.|.|.|.|.|.|.|.|.",
"|.|.|.|.|.|.|.|.|.|.|.|.|.|.|.|.|.|.|.|.|.|.].Z.g.f.d.d.d.d.d.d.d.d.d.d.d.d.d.d.g.Z.'.|.D k k S D N c A {.|.|.|.|.|.|.|.|.|.|.|.",
"|.|.|.|.|.|.|.|.|.|.|.|.|.|.|.|.|.|.|.|.|.|.'.x.g.d.d.d.d.d.d.d.d.d.d.d.d.d.d.d.d.x.B.|.D k k S D H b A E.|.|.|.|.|.|.|.|.|.|.|.",
"|.|.|.|.|.|.|.|.|.|.|.|.|.|.|.|.[.[.[.[.].].B.x.d.d.d.d.d.d.d.d.d.d.d.d.d.d.d.d.d.c.M.].R.G F D R.n F S {.|.|.|.|.|.|.|.|.|.|.|.",
"|.|.|.|.|.|.|.|.|.|.|.|.|.|.|.[.V.M.M.M.6.6.n.l.d.d.d.d.d.d.d.d.d.d.d.d.d.d.d.d.d.l.n.M.6.5.5.m.].R.R.E.|.|.|.|.|.|.|.|.|.|.|.|.",
"|.|.|.|.|.|.|.|.|.|.|.|.|.|.].m.2.[ [ o.o.s.s.j.d.d.d.d.d.d.d.d.d.d.d.d.d.d.d.d.d.j.s.s.s.s.c.x.n.B.].|.|.|.|.|.|.|.|.|.|.|.|.|.",
"|.|.|.|.|.E.R.{.|.|.|.|.].Y.4.] _ ..a.d.d.d.f.d.d.d.d.d.d.d.d.d.d.d.d.d.d.d.d.d.d.d.f.d.d.f.h.h.j.c.n.'.].|.|.|.|.|.|.|.|.|.|.|.",
"|.|.|.|.|.E.R.E.|.|.|.|.Y.1.` ^  .a.d.d.d.d.d.d.d.d.d.d.d.d.d.d.d.d.d.d.d.d.d.d.d.d.d.d.d.d.d.d.d.g.l.b.B.|.|.|.|.|.|.|.|.|.|.|.",
"|.|.|.E.E.|.E.E.R.R.E.Y.1.` ! ) X.d.d.d.d.d.d.d.d.d.d.d.d.d.d.d.d.d.d.d.d.d.d.d.d.d.d.d.d.d.d.d.d.d.d.k.b.'.|.|.|.|.|.|.|.|.|.|.",
"|.|.|.E.E.|.|.E.R.R.R.4.` ! ^ ..d.d.d.d.d.d.d.d.d.d.d.d.d.d.d.d.d.d.d.d.d.d.d.d.d.d.d.d.d.d.d.d.d.d.d.d.l.N.].|.|.|.|.|.|.|.|.|.",
"|.|.|.|.|.|.|.|.|.E.Y.<.~ ! / X.d.d.d.d.d.d.d.d.d.d.d.d.d.d.d.d.d.d.d.d.d.d.d.d.d.d.d.d.d.d.d.d.d.d.d.d.g.x.B.|.|.|.|.|.|.|.|.|.",
"|.|.|.|.|.|.|.|.|.].4.' ! ! ) d.d.d.d.d.d.d.d.O.O.O.O.O.O.O.O.O.O.O.O.O.O.O.O.O.O.d.d.d.d.d.d.d.d.d.d.d.d.k.n.].|.|.|.|.|.|.|.|.",
"|.|.|.|.|.|.|.|.|.].<.( ! ! ) d.d.d.d.} #.% O . . . . . . . . . . . . . . . . . . O % 5 } d.d.d.d.d.d.d.d.g.Z.'.|.|.|.|.|.|.|.|.",
"|.|.|.|.|.|.|.|.|.Y.] ~ ! !  .d.d.{ 7 X . . . . . . . . . . . . . . . . . . . . . . . . X 7 { d.d.d.d.d.d.d.c.B.|.|.|.|.|.|.|.|.",
"|.|.|.|.|.|.|.|.|.5.` ! ! ! ) O.5 X . . . . . . . . . . . . . . . . . . . . . . . . . . . . X 5 d.d.d.d.d.d.l.B.].|.|.|.|.|.|.|.",
"|.|.|.|.|.|.|.|.|.5.` ! ! ! / 8 . . . . . . . . . . . . . . . . . . . . . . . . . . . . . . . . 9 O.d.d.d.d.l.M.].|.|.|.|.|.|.|.",
"|.|.|.|.|.|.|.|.|.5.` ! ! !   . . . . . . . . . . . . . . . . . . . . . . . . . . . . . . . . . . 9 d.d.d.d.l.B.].|.|.|.|.|.|.|.",
"|.|.|.|.|.|.|.|.|.5.] ~ ! 4 . . . . . . . . . . . . . . . . . . . . . . . . . . . . . . . . . . . . %.d.d.d.c.B.|.|.|.|.|.|.|.|.",
"|.|.|.|.|.|.|.|.|.].<.( Y o . . . . . . . . . . . . . . . . . . . . . . . . . . . . . . . . . . . . o | d.g.x.'.|.|.|.|.|.|.|.|.",
"|.|.|.|.|.|.|.|.|.].4._ 6 . . . . . . . . . . . . . . . . . . . . . . . . . . . . . . . . . . . . . . 9 d.k.n.].|.|.|.|.|.|.|.|.",
"|.|.|.|.|.|.|.|.|.|.5.,.X . . . . . . . . . . . . . . . . . . . . . . . . . . . . . . . . . . . . . . o +.c.B.].|.|.|.|.|.|.|.|.",
"|.|.|.|.|.|.|.|.|.|.].$.. . . . . . . . . . . . . . . . . . . . . . . . . . . . . . . . . . . . . . . . %.n.].|.|.|.|.|.|.|.|.|.",
"|.|.|.|.|.|.|.|.|.|.|.* . . . . . . . . . . . . . . . . . . . . . . . . . . . . . . . . . . . . . . . . y B.|.|.|.|.|.|.|.|.|.|.",
"|.|.|.|.|.|.|.|.|.|.|.@ . . . . . . . . . . . . . . . . . . . . . . . . . . . . . . . . . . . . . . . . & ].|.|.|.|.|.|.|.|.|.|.",
"|.|.|.|.|.|.|.|.|.|.|.+ . . . . . . . . . . . . . . . . . . . . . . . . . . . . . . . . . . . . . . . . + [.|.|.|.|.|.|.|.|.|.|.",
"|.|.|.|.|.|.|.|.|.|.|.O . . . . . . . . . . . . . . . . . . . . . . . . . . . . . . . . . . . . . . . . + C.[.|.|.|.|.|.|.|.|.|.",
"|.|.|.|.|.|.|.|.|.|.|.O . . . . . . . . . . . . . . . . . . . . . . . . . . . . . . . . . . . . . . . . + C.[.{._.`.|.|.|.|.|.|.",
"|.|.|.E.R.|.|.|.|.|.|.O . . . . . . . . . . . . . . . . . . . . . . . . . . . . . . . . . . . . . . . . + C.].Z B C {.|.|.|.|.|.",
"|.|.|.E.R.|.|.|.|.|.|.O . . . . . . . . . . . . . . . . . . . . . . . . . . . . . . . . . . . . . . . . + V.R.C M C {.|.|.|.|.|.",
"|.|.|.|.|.|.|.|.|.|.|.O . . . . . . . . . . . . . . . . . . . . . . . . . . . . . . . . . . . . . . . . O S H n C U.|.|.|.|.|.|.",
"|.|.|.|.|.|.|.|.|.|.|.O . . . . . . . . . . . . . . . . . . . . . . . . . . . . . . . . . . . . . . . . O J b J D {._.{.|.|.|.|.",
"|.|.|.|.|.|.|.|.|.|.|.O . . . . . . . . . . . . . . . . . . . . . . . . . . . . . . . . . . . . . . . . O V v V R.Z C C {.|.|.|.",
"|.|.|.|.|.|.|.|.|.|.|.@ . . . . . . . . . . . . . . . . . . . . . . . . . . . . . . . . . . . . . . . . + V c N Z C s B _.|.|.|.",
"|.|.|.|.|.|.|.|.|.|.|.& . . . . . . . . . . . . . . . . . . . . . . . . . . . . . . . . . . . . . . . . - F b V Z C s B _.|.|.|.",
"|.|.|.|.|.|.|.|.|.|.|.A.. . . . . . . . . . . . . . . . . . . . . . . . . . . . . . . . . . . . . . . . ; z k J R.C s B _.|.|.|.",
"|.|.|.|.|.|.|.|.|.|.|.G.. . . . . . . . . . . . . . . . . . . . . . . . . . . . . . . . . . . . . . . . H.L L S E.U.C Z {.|.|.|.",
"|.|.|.|.|.|.|.|.|.|.|.|.& . . . . . . . . . . . . . . . . . . . . . . . . . . . . . . . . . . . . . . # W.W.W.{.|.|.{.{.|.|.|.|.",
"|.|.|.|.|.|.|.|.|.|.|.|.F.. . . . . . . . . . . . . . . . . . . . . . . . . . . . . . . . . . . . . . F.|.|.|.|.|.|.|.|.|.|.|.|.",
"|.|.|.|.|.|.|.|.|.|.|.|.|.u . . . . . . . . . . . . . . . . . . . . . . . . . . . . . . . . . . . . u |.|.|.|.|.|.|.|.|.|.|.|.|.",
"|.|.|.|.|.E.|.|.|.|.|.|.|./.+ . . . . . . . . . . . . . . . . . . . . . . . . . . . . . . . . . . + /.|.|.|.|.|.|.|.|.|.|.|.|.|.",
"|.|.|.|.|.R.R.|.|.|.|.|.|.|.K.$ . . . . . . . . . . . . . . . . . . . . . . . . . . . . . . . . $ K.|.|.|.|.|.|.|.|.|.|.|.|.|.|.",
"|.|.|.|.|.R.R.|.|.|.|.|.|.|.|.I.@ . . . . . . . . . . . . . . . . . . . . . . . . . . . . . . @ I.|.|.|.|.|.|.|.|.|.|.|.|.|.|.|.",
"|.|.|.|.|.R.R.|.|.|.|.|.|.|.|.|.Q.p X . . . . . . . . . . . . . . . . . . . . . . . . . . X p Q.|.|.|.|.|.|.|.|.|.|.|.|.|.|.|.|.",
"|.|.|.|.|.E.E.|.|.|.|.|.|.|.|.|.|.|.P.i @ . . . . . . . . . . . . . . . . . . . . . . @ i P.|.|.|.|.|.|.|.|.|.|.|.|.|.|.|.|.|.|.",
"|.|.|.|.|.|.|.|.|.|.|.|.|.|.|.|.|.|.|.|.|.L.D.S.S.S.S.A.l 6 3 0 q q q y = A.A.= A.D.L.|.|.|.|.|.|.|.|.|.|.|.|.|.|.|.|.|.|.|.|.|.",
"|.|.|.|.|.|.|.|.|.|.|.|.|.|.|.|.|.|.|.|.|.|.|.|.|.|.|.U.d T > r r.t.y.-.m R.R.).).|.|.|.|.|.|.|.|.|.|.|.|.|.|.|.|.|.|.|.|.|.|.|.",
"|.|.|.|.|.|.|.|.|.|.|.|.|.|.|.|.|.|.|.|.|.|.|.|.|.|.|.U.d T 1 t r.t.y.=.x P ).W.Q.|.|.|.|.|.|.|.|.|.|.|.|.|.|.|.|.[..X.X|.|.|.|.",
"|.|.|.|.|.|.|.|.|.|.|.|.|.|.|.|.|.|.|.|.|.|.|.|.|.|.|.R.a @.1 t r.t.y.-.K P R.|.|.|.|.|.|.|.|.|.|.|.|.|.|.|.|.|.|.[..X.X|.|.|.|.",
"|.|.|.|.|.|.|.|.|.|.|.|.|.|.|.|.|.|.|.|.|.|.|.|.|.|.|.R.m #.< t r.t.y.;.J.R.Q.|.|.|.|.|.|.|.|.|.|.|.|.|.|.|.|.|.|.|.[.[.|.|.|.|.",
"|.|.|.|.|.|.|.|.|.|.|.|.|.|.|.|.|.|.|.|.|.|.|.|.|.|.|.W.(.#.< t r.t.y.:.T.Q.|.|.|.|.|.|.|.|.|.|.|.|.|.|.|.|.|.|.|.|.|.|.|.|.|.|.",
"|.|.|.|.|.|.|.|.|.|.|.|.|.|.|.|.|.|.|.|.|.|.|.|.|.|.|.Q.T.&.2 t r.t.y.:.~.|.|.|.|.|.|.|.|.|.|.|.|.|.|.|.|.|.|.|.|.|.|.|.|.|.|.|.",
"|.|.|.|.|.|.|.|.|.|.|.|.|.|.|.|.|.|.|.|.|.|.|.|.|.|.|.|.Y.&., r r.t.y.w.~.|.|.|.|.|.|.|.|.|.|.|.|.|.|.|.|.|.{.{.{.{.|.|.|.|.|.|.",
"|.|.|.|.|.|.|.|.|.|.|.|.|.|.|.|.|.|.|.|.|.|.|.|.|.|.|.|.9.Q , t r.t.u.>.^.].|.|.|.|.|.|.|.|.|.|.|.|.|.|.|.{.R.D R.R.|.|.|.|.|.|.",
"|.|.|.|.|.|.|.|.|.|.|.|.|.|.|.|.|.|.|.|.|.|.|.|.|.|.|.].7.E : t r.u.u.i.!.|.|.|.|.|.|.|.|.|.|.|.|.|.|.|.|.R.D D D R.W.Q.|.|.|.|.",
"|.|.|.|.|.|.|.|.|.|.|.|.|.|.|.|.|.|.|.|.|.|.|.|.|.|.|.Y.3.W w t r.u.u.i.0.Y.|.|.|.|.|.|.|.|.|.|.|.|.|.|.|.R.R.R.R.D P ).Q.|.|.|.",
"|.|.|.|.|.|.|.|.|.|.|.|.|.|.|.|.|.|.|.|.|.|.|.|.|.|.|.~.*.2 w t r.t.u.p.q.~.|.|.|.|.|.|.|.|.|.|.|.|.|.|.|.E.R.R.E.).K P W.|.|.|.",
"|.|.|.|.|.|.|.|.|.|.|.|.|.|.|.|.|.|.|.|.|.|.|.|.|.|.Y.3.W : w t r.t.t.u.i.0.~.|.|.|.|.|.|.|.|.|.|.|.|.|.|.{.{.{.|.R.P ).Q.|.|.|.",
"|.|.|.|.|.|.|.|.{.|.|.|.|.|.|.|.|.|.|.|.|.|.|.|.|.Y.7.Q , : w e.t.t.t.u.y.>.8.Y.|.|.|.|.|.|.|.|.|.|.|.|.|.|.|.|.|.|.Q.Q.|.|.|.|.",
"|.|.|.|.|.|.|.Z Z {.|.|.|.|.|.|.|.|.|.|.|.|.|.|.].7.*.R : : e e.t.t.t.u.u.p.q.^.|.|.|.|.|.|.|.|.|.|.|.|.|.|.|.|.|.|.|.|.|.|.|.|."
};
