/* XPM */
static char *_2b3269648c443bcf40b399a4cb0a1a1SXBbEIJJyZ9vixFg[] = {
/* columns rows colors chars-per-pixel */
"64 64 193 2 ",
"   c #BD7401",
".  c #BD7A04",
"X  c #C17402",
"o  c #C77A0B",
"O  c #CD7D0F",
"+  c #CC7D10",
"@  c #5DB43D",
"#  c #7AB321",
"$  c #7AB822",
"%  c #75B32F",
"&  c #63AF30",
"*  c #70AE3F",
"=  c #6EBD37",
"-  c #64B63D",
";  c #65B93A",
":  c #6DBA3A",
">  c #74B633",
",  c #76BE3C",
"<  c #7ABE3C",
"1  c #78C139",
"2  c #559F54",
"3  c #559A5B",
"4  c #6C9F58",
"5  c #749F5E",
"6  c #59AC46",
"7  c #5FA54A",
"8  c #59AA48",
"9  c #5AB041",
"0  c #5FA256",
"q  c #5FA059",
"w  c #62A94F",
"e  c #63B344",
"r  c #6CB542",
"t  c #67B840",
"y  c #6BB941",
"u  c #6BB349",
"i  c #71B645",
"p  c #74BC44",
"a  c #7ABE45",
"s  c #77B64C",
"d  c #7EBA4C",
"f  c #67A455",
"g  c #6CAB52",
"h  c #63A258",
"j  c #76AA56",
"k  c #7DAD56",
"l  c #7AA759",
"z  c #7AAB5B",
"x  c #76B251",
"c  c #7CB255",
"v  c #7EB059",
"b  c #619C60",
"n  c #70A461",
"m  c #8E8F1F",
"M  c #8C901D",
"N  c #99971B",
"B  c #A58B01",
"V  c #A98E01",
"C  c #BA8706",
"Z  c #B69701",
"A  c #B99301",
"S  c #B89801",
"D  c #B38A14",
"F  c #A39215",
"G  c #AA921D",
"H  c #B79511",
"J  c #B89511",
"K  c #8DA700",
"L  c #8EA901",
"P  c #83AC0F",
"I  c #8DAD0D",
"U  c #91A701",
"Y  c #92AC01",
"T  c #98AE00",
"R  c #90AF0E",
"E  c #8EB107",
"W  c #8FB10B",
"Q  c #92B006",
"!  c #9CB201",
"~  c #93B30B",
"^  c #9FB809",
"/  c #8CAE12",
"(  c #85AE1E",
")  c #88A918",
"_  c #8DB116",
"`  c #8DB21A",
"'  c #92B716",
"]  c #B7AE01",
"[  c #A2B601",
"{  c #A6B902",
"}  c #ADBD01",
"|  c #A1BA08",
" . c #B7B301",
".. c #B9B502",
"X. c #B5BD00",
"o. c #BABC01",
"O. c #BFB108",
"+. c #ACA414",
"@. c #B0A613",
"#. c #98892E",
"$. c #A39424",
"%. c #A89822",
"&. c #A39A2F",
"*. c #B69B24",
"=. c #A18E3B",
"-. c #A99536",
";. c #A09039",
":. c #B59D36",
">. c #BE9F30",
",. c #88AF29",
"<. c #8BB423",
"1. c #8FB827",
"2. c #8BB62D",
"3. c #8CB82D",
"4. c #95BD26",
"5. c #9AAB34",
"6. c #87B532",
"7. c #8AB731",
"8. c #85B937",
"9. c #8BBA34",
"0. c #8BBD3D",
"q. c #92BF36",
"w. c #92B63E",
"e. c #A5AE3C",
"r. c #BAA132",
"t. c #A3B13D",
"y. c #CD8311",
"u. c #D7861C",
"i. c #D68D1D",
"p. c #C49E13",
"a. c #CC9C13",
"s. c #D3921A",
"d. c #C7A50D",
"f. c #C3AC0B",
"g. c #CAA111",
"h. c #DA8721",
"j. c #DB8921",
"k. c #C89B2D",
"l. c #D79327",
"z. c #E08B22",
"x. c #AFC407",
"c. c #AEC30D",
"v. c #B6C400",
"b. c #B8C600",
"n. c #B7C806",
"m. c #BAC901",
"M. c #B1C40A",
"N. c #B5CB0C",
"B. c #B9CD09",
"V. c #ABC414",
"C. c #A6C41C",
"Z. c #A9C519",
"A. c #92C02B",
"S. c #9CC32C",
"D. c #9FD527",
"F. c #88C438",
"G. c #95C235",
"H. c #99C331",
"J. c #92C33D",
"K. c #94C93C",
"L. c #9AD335",
"P. c #9DD43B",
"I. c #A2C423",
"U. c #A0C629",
"Y. c #A0D827",
"T. c #A1D82B",
"R. c #A6DC34",
"E. c #AEE42E",
"W. c #B3E82A",
"Q. c #81AB41",
"!. c #8CBE44",
"~. c #85BF4B",
"^. c #83BC4C",
"/. c #89BE4B",
"(. c #99B742",
"). c #92BE46",
"_. c #99B843",
"`. c #81AF54",
"'. c #81B353",
"]. c #85B950",
"[. c #82C046",
"{. c #8EC243",
"}. c #8AC146",
"|. c #8CC347",
" X c #85C149",
".X c #86C149",
"XX c #8BC249",
"oX c #88C14A",
"OX c #8AC34A",
"+X c #8BC34A",
"@X c #8DC548",
"#X c #91C340",
"$X c #92CA43",
/* pixels */
"+X+X+X+X+X+X+X+X+X+X+X+X+X+X+X+X+X^.'.c x x ^.^.p p ^.!.S.Z.M.n.v.v.M.V.S.J.|.+X+X+X+X+X+X, , .X+X+X+X+X+X+X+X+X+X+X+X+X+X+X+X+X",
"+X+X+X+X+X+X+X+X+X+X+X+X+X+X+X+X+X+X+X+X.X+X+X+X+X}.G.Z.n.m.m.b.v.v.m.m.n.V.H.|.+X+X+X+X[.= = [.+X+X+X+X+X+X+X+X+X+X+X+X+X+X+X+X",
"+X+X+X+X+X+X+X+X+X+X+X+X+X+X+X+X+X+X+X+X+X+X+X+X|.H.V.m.b.v.v.v.v.v.v.v.b.m.c.S.|.+X+X+X[.; ; [.+X+X+X+X+X+X+X+X+X+X+X+X+X+X+X+X",
"+X+X+X+X+X+X+X+X+X+X+X+X+X+X+X+X+X+X+X+X+X+X+X+XG.V.b.v.v.v.v.v.v.v.v.v.v.v.b.V.G.+X+X+X.X@ @ [.+X+X+X+X+X+X+X+X+X+X+X+X+X+X+X+X",
"+X+X+X+X+X+X+X+X+X+X+X+X+X+X+X+X+X+X+X+X+X+X+X|.C.m.b.v.v.v.v.v.v.v.v.v.v.v.v.m.C.{.+X+X^.8 8 ^.+Xa a .X+X+X+X+X+X+X+X+X+X+X+X+X",
"+X+X+X+X+X+X+X+X+X+X+X+X+X+X+X+X+X+X+X+X+X+X+XG.N.m.v.v.v.v.v.v.v.v.v.v.v.v.v.m.N.H.+X+X^.3 3 d .Xy @ a +X+X+X+X+X+X+X+X+X+X+X+X",
"+X+X+X+X+X+X+X+X+X+X+X+X+X+X+X+X+X+X+X+X+X+X+XI.n.b.v.v.v.v.v.v.v.v.v.v.v.v.v.b.n.I.+X+X^.3 3 d .Xe 6 p +X+X+X+X+X+X+X+X+X+X+X+X",
"+X+X+X+X+X+X+X+X+X+X+X+X+X+X+X+X+X+X+X+X+X+X|.C.v.v.v.v.v.v.v.v.v.v.v.v.v.v.v.v.v.Z.|.+X^.3 3 d ^.0 3 x +X+X+X+X+X+X+X+X+X+X+X+X",
"+X+X+X+X+X+X+X+X+X+X+X+X+X+X+X@X@X@X@X@X+X+X{.Z.v.v.v.v.v.v.v.v.v.v.v.v.v.v.v.v.v.V.#X+X~.h q ^.~.w q x +X+X+X+X+X+X+X+X+X+X+X+X",
"+X+X+X+X+X+X+X+X+X+X+X+X+X+X+X$XK.K.G.G.9.9.G.V.v.v.v.v.v.v.v.v.v.v.v.v.v.v.v.v.v.V.H.G.q.0.0.{.|.~.~.+X+X+X+X+X+X+X+X+X+X+X+X+X",
"+X+X+X+X+X+X+X+X+X+X+X+X+X+X}.J.A.' ~ ^ { } c.v.v.v.v.v.v.v.v.v.v.v.v.v.v.v.v.v.v.n.M.M.M.M.V.C.H.J.|.+X+X+X+X+X+X+X+X+X+X+X+X+X",
"+X+X+X+X+X^.^.+X+X+X+X+X+X}.9.` Y [ v.b.b.m.m.b.v.v.v.v.v.v.v.v.v.v.v.v.v.v.v.v.v.v.m.b.b.m.m.m.n.V.H.|.+X+X+X+X+X+X+X+X+X+X+X+X",
"+X+X+X+X+X^.^.+X+X+X+X+X}.3.I Y [ v.v.v.v.v.v.v.v.v.v.v.v.v.v.v.v.v.v.v.v.v.v.v.v.v.v.v.v.v.v.v.v.m.M.S.|.+X+X+X+X+X+X+X+X+X+X+X",
"+X+X+X^.^.+X+X^.^.^.^.}.2.I L ! v.v.v.v.v.v.v.v.v.v.v.v.v.v.v.v.v.v.v.v.v.v.v.v.v.v.v.v.v.v.v.v.v.v.b.N.S.|.+X+X+X+X+X+X+X+X+X+X",
"+X+X+X^.^.+X+X^.^.^.^.8.I L L { v.v.v.v.v.v.v.v.v.v.v.v.v.v.v.v.v.v.v.v.v.v.v.v.v.v.v.v.v.v.v.v.v.v.v.v.M.G.+X+X+X+X+X+X+X+X+X+X",
"+X+X+X+X+X+X+X+X+X/.!.` Y K T X.v.v.v.v.v.v.v.v.v.v.v.v.v.v.v.v.v.v.v.v.v.v.v.v.v.v.v.v.v.v.v.v.v.v.v.v.m.Z.{.+X+X+X+X+X+X+X+X+X",
"+X+X+X+X+X+X+X+X+X+X9.W L K ! v.v.v.v.v.v.v.v.v.v.v.v.v.v.v.v.v.v.v.v.v.v.v.v.v.v.v.v.v.v.v.v.v.v.v.v.v.v.B.H.+X+X+X+X+X+X+X+X+X",
"+X+X+X+X+X+X+X+X+X}.<.Q L K [ v.v.v.v.v.v.v.v.v.v.v.v.v.v.v.v.v.v.v.v.v.v.v.v.v.v.v.v.v.v.v.v.v.v.v.v.v.v.m.C.|.+X+X+X+X+X+X+X+X",
"+X+X+X+X+X+X+X+X+X}._ L L K [ v.v.v.v.v.v.v.v.v.v.v.v.v.v.v.v.v.v.v.v.v.v.v.v.v.v.v.v.v.v.v.v.v.v.v.v.v.v.b.V.{.+X+X+X+X+X+X+X+X",
"+X+X+X+X+X+X+X+X+X{./ L K K ! v.v.v.v.v.v.v.v.v.v.v.v.v.v.v.v.v.v.v.v.v.v.v.v.v.v.v.v.v.v.v.v.v.v.v.v.v.v.v.c.J.+X+X+X+X+X+X+X+X",
"+X+X+X+X+X+X+X+X+X{./ L K K T } v.v.v.v.v.v.v.v.v.v.v.v.v.v.v.v.v.v.v.v.v.v.v.v.v.v.v.v.v.v.v.v.v.v.v.v.v.v.c.J.+X+X+X+X+X+X+X+X",
"+X+X+X+X+X+X+X+X+X!./ L K K K [ v.v.v.v.v.v.v.v.v.v.v.v.v.v.v.v.v.v.v.v.v.v.v.v.v.v.v.v.v.v.v.v.v.v.v.v.v.v.c.J.+X+X+X+X+X+X+X+X",
"+X+X+X+X+X+X+X+X+X}./ L L K K Y { v.v.v.v.v.v.v.v.v.v.v.v.v.v.v.v.v.v.v.v.v.v.v.v.v.v.v.v.v.v.v.v.v.v.v.v.v.V.{.+X+X+X+X+X+X+X+X",
"+X+X+X+X+X+X+X+X+X}.<.Y L K K K Y { v.v.v.v.v.v.v.v.v.v.v.v.v.v.v.v.v.v.v.v.v.v.v.v.v.v.v.v.v.v.v.v.v.v.v.m.C.|.+X+X+X+X+X+X+X+X",
"+X+X+X+X+X+X+X+X+X+X9.~ L K K K K Y ! } v.v.v.v.v.v.v.v.v.v.v.v.v.v.v.v.v.v.v.v.v.v.v.v.v.v.v.v.v.v.v.v.b.B.S.+X+X+X+X+X+X+X+X+X",
"+X+X+X+X+X+X+X+X+X+X{._ Y L K K K K K Y ! { v.v.v.v.v.v.v.v.v.v.v.v.v.v.v.v.v.v.v.v.v.v.v.v.v.v.v.v.v.v.b.V.#X+X+X+X+X+X+X+X+X+X",
"+X+X+X+X+X+X+X+X+X+X+X9.~ L K K K K K K K T } v.v.v.v.v.v.v.v.f.a.f.v.v.v.v.v.v.v.v.v.v.v.v.v.v.v.v.v.m.B.S.+X+X+X+X+X+X+X+X+X+X",
"+X+X+X+X+X+X+X+X+X+X+X}.<.~ L K K K K K K T } v.v.v. .] X.v.v.g.h.a.o.v.v.o.o.v.v.v.v.v.v.v.v.v.v.v.m.B.I.|.+X+X+X+X+X+X+X+X+X+X",
"+X+X+X+X+X+X+X+X+X+X+X+X!.# E L K K K K K T } v.v.X.A . A X.v.g.h.a.o.v.f.s.a.o.v.v.v.v.v.v.v.v.v.b.B.I.{.+X+X+X+X+X+X+X+X+X+X+X",
"+X+X+X+X+X+X+X+X+X+X+X+X.X, $ I L K K K K T } v.v.X.A     A  .g.h.a.o.d.i.h.a.o.v.v.v.v.v.v.v.v.v.M.U.K.$X@X+X+X+X+X+X+X+X+X+X+X",
"+X+X+X+X+X+X+X+X+X+X+X+X@XL.Y.' L L K K K Y { v.v.v...A     A a.h.a.d.i.h.a...v.v.v.v.v.v.v.v.v.v.V.J.R.E.P.@X+X+X+X+X+X+X+X+X+X",
"+X+X+X+X+X+X+X+X+X+X+X+X@XL.D.~ L K K K K K [ v.v.v.v.X.A     y.h.i.i.h.a.o.v.v.v.v.v.v.v.v.v.v.b.N.G.R.W.P.@X+X.X.X+X+X+X+X+X+X",
"+X+X+X^.^.+X+X+X+X+X+X+X}.1 $ E L K K K K K ! X.v.v.v.v. .C   + h.h.h.s.O.v.v.v.v.v.v.v.v.v.v.v.b.B.S.R.W.P.+Xp - y .X+X+X+X+X+X",
"+X+X+X^.^.+X+X+X+X+X+X+X}.< # E L K K K K K Y { v.v.v.v.X.A   + h.h.h.a.o.v.v.v.v.v.v.v.v.v.v.v.b.n.4.R.E.P..Xp @ y .X+X+X+X+X+X",
"+X+X+X+X+X+X+X+X+X+X+X+X}.< # E L K K K K K K T } v.v.v.v.S   + h.h.h.g.v.v.v.v.v.v.v.v.v.v.v.v.v.x.1.$X$Xs h g a .X+X+X+X+X+X+X",
"+X+X+X+X+X+X+X+X+X+X+X+X}.< $ W L K K K K K K K ! } v.v.v.S   + h.h.h.g.v.v.v.{ } v.v.v.v.v.v.v.v.| 2.+X.Xg 3 g ~.+X.X+X+X+X+X+X",
"+X+X+X+X+X+X+X+X+X+X+X+X+X[.8.I L K K K K K K K K T { v.v.S   + h.h.h.g.v.} ! Y ! } v.v.v.v.v.v.{ R Q.].~.u 8 u .Xa y p .X+X+X+X",
"+X+X+X+X+X+X+X+X+X+X+X+X+X+X}._ L L K K K K K K K K Y ! } Z   + h.h.h.p.[ T K K L T { v.v.v.} [ Y ) l '.^.r 9 y .Xp @ - .X+X+X+X",
"+X+X+X+X+X+X+X+X+X+X+X+X+X+X+X2.~ L K K K K K K K K K L Y V   + h.h.h.J U K K K K K Y T ! ! T Y Q ,.'.v z f 2 u .Xa @ t .X+X+X+X",
"+X+X+X+X+X+X+X+X+X+X+X+X+X+X+X{._ Y L K K K K K K K K K K B   + h.h.h.H K K K K K K K K K K L L _ 0.^.z n b 3 g .Xp @ y .X+X+X+X",
"+X+X+X+X+X+X+X+X+X+X+X+X+X+X+X+X9.I L L K K K K K K K K K B   + h.h.h.J K K K K K K K K K L L I 9.+X+X'.v j g s +X^.p a +X+X+X+X",
"+X+X+X+X+X+X+X+X+X+X+X+X+X+X+X+X}.9.I Y L K K K K K K K K B   + h.h.u.H U K K K K K K K L Y I 2.}.+X+X+X+X+X+X+X+X+X.X+X+X+X+X+X",
"+X+X+X+X+X+X+X+X+X+X+X+X+X+X+X+X+X}.9.` L Y Y L L L L Y Y B   + h.h.h.J Y Y Y L L L Y Y L ` 9.}.+X+X+X+X+X+X+X+X+X+X+X+X+X+X+X+X",
"+X+X+X+X+X+X+X+X+X+X+X+X+X+X+X+X+X+X+X0.3.` I L L L L P <.F   + h.h.h.*.( P L L L L I ` 3.0.}.+X+X+X+X+X+X+X+X+X+X+X+X+X+X+X+X+X",
"+X+X+X+X+X~.+X+X+X+X+X+X+X+X+X+X+X+X+X+X}.0.9.9.7.7.% > < N   + h.h.h.-.* & % 7.7.6.8.0.}.+X+X+X+X+X+X+X+X+X+X+X+X+X+X+X+X+X+X+X",
"+X+X+X+X+X^.^.+X+X+X+X+X+X+X+X+X+X+X+X+X+X+X+X+X+X+X.X[.1 N   + h.h.h.;.7 @ y .X~.'.'.+X+X+X+X+X+X+X+X+X+X+X+X+X+X+X+X+X+X+X+X+X",
"+X+X+X+X+X^.^.+X+X+X+X+X+X+X+X+X+X+X+X+X+X+X+X+X+X+X+X}.F.N   + h.h.h.;.7 e i ^.^.'.'.+X+X+X+X+X+X+X+X+X+X+X+X+X+X+X+X+X+X+X+X+X",
"+X+X+X+X+X^.^.+X+X+X+X+X+X+X+X+X+X+X+X+X+X+X+X+X+X+X+X@XT.@.  O h.h.h.&.r ^.^.'.'./.+X+X+X+X+X+X+X+X+X+X+X+X+X+X+X+X+X+X+X+X+X+X",
"+X+X+X+X+X^.^.+X+X+X+X+X+X+X+X+X+X+X+X+X+X+X+X+X+X+X+X@XD.+.  O h.h.h.&.i ~.^.`.'.+X+X+X+X+X+X+X+X+X+X+X+X+X+X+X+X+X+X+X+X+X+X+X",
"+X+X+X+X+X+X+X+X+X+X+X+X+X+X+X+X+X+X+X+X+X+X+X+X+X+X+X.X: M   O h.h.h.;.g ~.^.'.'.+X+X+X+X+X+X+X+X+X+X+X+X+X+X+X+X+X+X+X+X+X+X+X",
"+X+X+X+X+X+X+X+X+X+X+X+X+X+X+X+X+X+X+X+X+X+X+X+X+X+X+X.X- M   O h.h.h.=.g ^.^.'.'.+X+X+X+X+X+X+X+X+X+X+X+X+X+X+X+X+X@X@X+X+X+X+X",
"+X+X+X+X+X+X+X+X+X+X+X+X+X+X+X+X+X+X+X+X+X+X+X+X+X+X+X.X- M   + h.j.h.=.4 k './.+X+X+X+X+X+X+X+X+X+X+X+X+X+X+X+X+X@X$X$X@X+X+X+X",
"+X+X+X+X+X+X+X+X+X+X+X+X+X+X+X+X+X+X+X+X+X+X+X+X+X+X+X.Xr m   + h.j.h.=.4 k ].+X+X+X+X+X+X+X+X+X+X+X+X+X+X+X+X+X+X@X$X$X@X+X+X+X",
"+X+X+X+X+X+X+X+X+X+X+X+X+X+X+X+X+X+X+X+X+X+X+X+X+X+X+X^.l #.  + h.h.h.-.`.^.+X+X+X+X+X+X+X+X+X+X+X+X+X+X+X+X+X+X+X@X@X@X+X+X+X+X",
"+X+X+X+X+X+X+X+X+X+X+X+X+X+X+X+X+X+X+X+X+X+X+X+X+X+X+X/.l #.  + h.h.h.:.].+X+X+X+X+X+X+X+X+X+X+X+X+X+X+X+X+X+X+X+X+X+X+X+X+X+X+X",
"+X+X+X+X+X+X+X+X+X+X+X+X+X+X+X+X+X+X+X+X+X+X+X+X+X+X+X+X].$.  + h.h.h.:./.+X+X+X+X+X+X+X+X+X+X+X+X+X+X+X+X+X+X+X+X+X+X+X+X+X+X+X",
"+X+X+X+X+X+X+X+X+X+X+X+X+X+X+X+X+X+X+X+X+X+X+X+X+X+X+X+X!.%.  O h.h.h.r.!.+X+X+X+X+X+X+X+X+X+X+X+X+X+X+X+X+X+X+X+X+X+X+X+X+X+X+X",
"+X+X+X+X+X+X+X+X+X+X+X+X+X+X+X+X+X+X+X+X+X+X+X+X+X+X+X+X!.G   + h.h.j.>.).@X+X+X+X+X+X+X+X+X+X+X+X+X+X+X+X.X^.d d ^.+X+X+X+X+X+X",
"+X+X+X+X+X+X+X+X+X+X+X+X+X+X+X+X+X+X+X+X+X+X+X+X+X+X+X+Xw.D X + h.h.j.k._.+X+X+X+X+X+X+X+X+X+X+X+X+X+X+X+X^.d d d ^./.+X+X+X+X+X",
"+X+X+X+X+X+X+X+X+X+X+X+X+X+X+X+X+X+X+X+X+X+X+X+X+X+X+X+X5.C X + h.h.z.l.e.+X+X+X+X+X+X+X+X+X+X+X+X+X+X+X+X~.d ^.^.d k '.+X+X+X+X",
"+X+X+X+X+X+X+X+X+X+X+X+X+X+X+X+X+X+X+X+X+X+X+X+X+X+X+X!.%..   + h.h.j.j.r.).+X+X+X+X+X+X+X+X+X+X+X+X+X+X+X^.^.^.+X'.5 l /.+X+X+X",
"+X+X+X+X+X+X+X+X+X+X+X+X+X+X+X+X+X+X+X+X+X+X+X+X+X+X+X5.D     + h.h.h.j.k.t.+X+X+X+X+X+X+X+X+X+X+X+X+X+X+X.X.X.X+X^.k '.+X+X+X+X",
"+X+X+X+X+X+X+X+X+X+X+X+X+X+X+X+X+X+X+X+X+X+X+X+X+X+Xw.G .   X y.h.h.h.j.j.k.(.+X+X+X+X+X+X+X+X+X+X+X+X+X+X+X+X+X+X+X+X+X+X+X+X+X",
"+X+X+X+X+X+X+Xa a .X+X+X+X+X+X+X+X+X+X+X+X+X+X+X+Xw.%..     o u.h.h.h.h.j.l.r._.+X+X+X+X+X+X+X+X+X+X+X+X+X+X+X+X+X+X+X+X+X+X+X+X"
};
